HIERARCHY
ROOT hips
{
  OFFSET 0 10.6860622 2.3727825e-15
  CHANNELS 6 Xposition Yposition Zposition Yrotation Xrotation Zrotation
  JOINT leftUpperLeg
  {
    OFFSET 0.6642549969 -0.9402397400000004 0
    CHANNELS 3 Yrotation Xrotation Zrotation
    JOINT leftLowerLeg
    {
      OFFSET 0 -3.997221335632195 0
      CHANNELS 3 Yrotation Xrotation Zrotation
      JOINT leftFoot
      {
        OFFSET -0.13777839790000004 -4.6145792000000005 -0.22186036399999998
        CHANNELS 3 Yrotation Xrotation Zrotation
        JOINT leftToes
        {
          OFFSET -0.03777410834999995 -0.9130806927000008 0.85230013
          CHANNELS 3 Yrotation Xrotation Zrotation
          End Site
          {
            OFFSET -0.03777410834999995 -0.9130806927000008 0.85230013
          }
        }
      }
    }
  }
  JOINT rightUpperLeg
  {
    OFFSET -0.6642778626 -0.9402397400000004 0
    CHANNELS 3 Yrotation Xrotation Zrotation
    JOINT rightLowerLeg
    {
      OFFSET 0 -3.997221452859387 0
      CHANNELS 3 Yrotation Xrotation Zrotation
      JOINT rightFoot
      {
        OFFSET 0.1377926176 -4.6145792000000005 -0.22185782299999995
        CHANNELS 3 Yrotation Xrotation Zrotation
        JOINT rightToes
        {
          OFFSET 0.037780746850000047 -0.9130806927000008 0.85230167
          CHANNELS 3 Yrotation Xrotation Zrotation
          End Site
          {
            OFFSET 0.037780746850000047 -0.9130806927000008 0.85230167
          }
        }
      }
    }
  }
  JOINT spine
  {
    OFFSET 0 0.13988381660000015 0
    CHANNELS 3 Yrotation Xrotation Zrotation
    JOINT chest
    {
      OFFSET 0 0.6191039003973773 0
      CHANNELS 3 Yrotation Xrotation Zrotation
      JOINT upperChest
      {
        OFFSET 0 0.9855186130586943 0
        CHANNELS 3 Yrotation Xrotation Zrotation
        JOINT leftShoulder
        {
          OFFSET 0.1807663869 1.5087829790000005 0
          CHANNELS 3 Yrotation Xrotation Zrotation
          JOINT leftUpperArm
          {
            OFFSET 0.5985063006419806 0 0
            CHANNELS 3 Yrotation Xrotation Zrotation
            JOINT leftLowerArm
            {
              OFFSET 2.2993332369501065 0 0
              CHANNELS 3 Yrotation Xrotation Zrotation
              JOINT leftHand
              {
                OFFSET 2.395047042602395 0 0
                CHANNELS 3 Yrotation Xrotation Zrotation
                JOINT leftIndexProximal
                {
                  OFFSET 0.5766295810000004 0.04556643899499946 0.17265095988184
                  CHANNELS 3 Yrotation Xrotation Zrotation
                  JOINT leftIndexIntermediate
                  {
                    OFFSET 0.2957229000000008 -0.019352197700001517 -0.007932640616999987
                    CHANNELS 3 Yrotation Xrotation Zrotation
                    JOINT leftIndexDistal
                    {
                      OFFSET 0.19008243099999922 -0.012484908149998475 -0.002786250786000012
                      CHANNELS 3 Yrotation Xrotation Zrotation
                      End Site
                      {
                        OFFSET 0.19008243099999922 -0.012484908149998475 -0.002786250786000012
                      }
                    }
                  }
                }
                JOINT leftMiddleProximal
                {
                  OFFSET 0.5834975091000001 0.0524350405149987 0.02204081888183999
                  CHANNELS 3 Yrotation Xrotation Zrotation
                  JOINT leftMiddleIntermediate
                  {
                    OFFSET 0.33880573540000003 -0.019871473270000717 -0.00000971183179999946
                    CHANNELS 3 Yrotation Xrotation Zrotation
                    JOINT leftMiddleDistal
                    {
                      OFFSET 0.20676022730000088 -0.012221336379999448 0.0001471936708000235
                      CHANNELS 3 Yrotation Xrotation Zrotation
                      End Site
                      {
                        OFFSET 0.20676022730000088 -0.012221336379999448 0.0001471936708000235
                      }
                    }
                  }
                }
                JOINT leftLittleProximal
                {
                  OFFSET 0.5344154683999995 -0.012880921405001189 -0.24414037221816004
                  CHANNELS 3 Yrotation Xrotation Zrotation
                  JOINT leftLittleIntermediate
                  {
                    OFFSET 0.21758961730000093 -0.011650919939999227 0.011893592810000034
                    CHANNELS 3 Yrotation Xrotation Zrotation
                    JOINT leftLittleDistal
                    {
                      OFFSET 0.1475273964999999 -0.008152365682999818 0.006001092492999946
                      CHANNELS 3 Yrotation Xrotation Zrotation
                      End Site
                      {
                        OFFSET 0.1475273964999999 -0.008152365682999818 0.006001092492999946
                      }
                    }
                  }
                }
                JOINT leftRingProximal
                {
                  OFFSET 0.5799399463000003 0.026911854694997794 -0.12150566991816003
                  CHANNELS 3 Yrotation Xrotation Zrotation
                  JOINT leftRingIntermediate
                  {
                    OFFSET 0.26167887460000006 -0.013480186499999602 0.010996293000000053
                    CHANNELS 3 Yrotation Xrotation Zrotation
                    JOINT leftRingDistal
                    {
                      OFFSET 0.17667108799999987 -0.008990287899999228 0.0055541023999999065
                      CHANNELS 3 Yrotation Xrotation Zrotation
                      End Site
                      {
                        OFFSET 0.17667108799999987 -0.008990287899999228 0.0055541023999999065
                      }
                    }
                  }
                }
                JOINT leftThumbProximal
                {
                  OFFSET 0.11018806699999972 -0.09448718900500053 0.17047963138184
                  CHANNELS 3 Yrotation Xrotation Zrotation
                  JOINT leftThumbIntermediate
                  {
                    OFFSET 0.31062601459999983 -0.08126270900000132 0.15443142000000007
                    CHANNELS 3 Yrotation Xrotation Zrotation
                    JOINT leftThumbDistal
                    {
                      OFFSET 0.21627175790000086 -0.08833193599999878 0.018771167799999988
                      CHANNELS 3 Yrotation Xrotation Zrotation
                      End Site
                      {
                        OFFSET 0.21627175790000086 -0.08833193599999878 0.018771167799999988
                      }
                    }
                  }
                }
              }
            }
          }
        }
        JOINT neck
        {
          OFFSET 0 1.5463305265074576 0
          CHANNELS 3 Yrotation Xrotation Zrotation
          JOINT head
          {
            OFFSET 0 0.8456443600000344 0
            CHANNELS 3 Yrotation Xrotation Zrotation
            JOINT leftEye
            {
              OFFSET 0.30408573140000006 0.5104519199999995 0.1276382305
              CHANNELS 3 Yrotation Xrotation Zrotation
              End Site
              {
                OFFSET 0.30408573140000006 0.5104519199999995 0.1276382305
              }
            }
            JOINT rightEye
            {
              OFFSET -0.30409491089999996 0.5104519199999995 0.1276379445
              CHANNELS 3 Yrotation Xrotation Zrotation
              End Site
              {
                OFFSET -0.30409491089999996 0.5104519199999995 0.1276379445
              }
            }
            JOINT jaw
            {
              OFFSET -3.155239131000001e-7 -0.11984121820000082 0.60178107
              CHANNELS 3 Yrotation Xrotation Zrotation
              End Site
              {
                OFFSET -3.155239131000001e-7 -0.11984121820000082 0.60178107
              }
            }
          }
        }
        JOINT rightShoulder
        {
          OFFSET -0.1807303465 1.5087829790000005 0
          CHANNELS 3 Yrotation Xrotation Zrotation
          JOINT rightUpperArm
          {
            OFFSET -0.5985063796536958 0 0
            CHANNELS 3 Yrotation Xrotation Zrotation
            JOINT rightLowerArm
            {
              OFFSET -2.2993322059002854 0 0
              CHANNELS 3 Yrotation Xrotation Zrotation
              JOINT rightHand
              {
                OFFSET -2.395045314457259 0 0
                CHANNELS 3 Yrotation Xrotation Zrotation
                JOINT rightIndexProximal
                {
                  OFFSET -0.5764487688300002 0.0441371204405987 0.17361932004999997
                  CHANNELS 3 Yrotation Xrotation Zrotation
                  JOINT rightIndexIntermediate
                  {
                    OFFSET -0.29573011380000047 -0.01934826376999843 -0.007698921482999974
                    CHANNELS 3 Yrotation Xrotation Zrotation
                    JOINT rightIndexDistal
                    {
                      OFFSET -0.19008373999999884 -0.012503266380000655 -0.0026365778999999897
                      CHANNELS 3 Yrotation Xrotation Zrotation
                      End Site
                      {
                        OFFSET -0.19008373999999884 -0.012503266380000655 -0.0026365778999999897
                      }
                    }
                  }
                }
                JOINT rightMiddleProximal
                {
                  OFFSET -0.5834852037300005 0.05211639405060153 0.02307162440000001
                  CHANNELS 3 Yrotation Xrotation Zrotation
                  JOINT rightMiddleIntermediate
                  {
                    OFFSET -0.33880114510000003 -0.019952774050000954 0.0002455003561999819
                    CHANNELS 3 Yrotation Xrotation Zrotation
                    JOINT rightMiddleDistal
                    {
                      OFFSET -0.20675694929999955 -0.012273788999999091 0.00030209124000002766
                      CHANNELS 3 Yrotation Xrotation Zrotation
                      End Site
                      {
                        OFFSET -0.20675694929999955 -0.012273788999999091 0.00030209124000002766
                      }
                    }
                  }
                }
                JOINT rightLittleProximal
                {
                  OFFSET -0.5346811737299992 -0.011214256288399227 -0.24363941305000003
                  CHANNELS 3 Yrotation Xrotation Zrotation
                  JOINT rightLittleIntermediate
                  {
                    OFFSET -0.21757715980000092 -0.011771559690000988 0.01201554387
                    CHANNELS 3 Yrotation Xrotation Zrotation
                    JOINT rightLittleDistal
                    {
                      OFFSET -0.1475201849000004 -0.00822055339600003 0.006082065407000015
                      CHANNELS 3 Yrotation Xrotation Zrotation
                      End Site
                      {
                        OFFSET -0.1475201849000004 -0.00822055339600003 0.006082065407000015
                      }
                    }
                  }
                }
                JOINT rightRingProximal
                {
                  OFFSET -0.5800810755299999 0.027657985680600072 -0.12066365025000003
                  CHANNELS 3 Yrotation Xrotation Zrotation
                  JOINT rightRingIntermediate
                  {
                    OFFSET -0.26166445029999974 -0.013623118409999302 0.011164098990000045
                    CHANNELS 3 Yrotation Xrotation Zrotation
                    JOINT rightRingDistal
                    {
                      OFFSET -0.17666387530000027 -0.009072900100000503 0.005668185599999959
                      CHANNELS 3 Yrotation Xrotation Zrotation
                      End Site
                      {
                        OFFSET -0.17666387530000027 -0.009072900100000503 0.005668185599999959
                      }
                    }
                  }
                }
                JOINT rightThumbProximal
                {
                  OFFSET -0.10997596379000074 -0.09577489355940072 0.16989765924999997
                  CHANNELS 3 Yrotation Xrotation Zrotation
                  JOINT rightThumbIntermediate
                  {
                    OFFSET -0.31036620999999986 -0.08229339117999834 0.15440884469999996
                    CHANNELS 3 Yrotation Xrotation Zrotation
                    JOINT rightThumbDistal
                    {
                      OFFSET -0.21631306399999906 -0.08825326400000111 0.018656797720000014
                      CHANNELS 3 Yrotation Xrotation Zrotation
                      End Site
                      {
                        OFFSET -0.21631306399999906 -0.08825326400000111 0.018656797720000014
                      }
                    }
                  }
                }
              }
            }
          }
        }
      }
    }
  }
}
MOTION
Frames: 8
Frame Time: 0.03333333333333333
0 11.682712981546562 0 0 0 0 0 0 -5.826343164929014 -0.3712483961610101 -3.6333298826370974 5.838118207697276 0 0 0 0 0 0 0 0 5.826343164929014 0.3712483961610101 -3.6333298826370974 -5.838118207697276 0 0 0 0 0 0 0 -4.610651315171937 0 0 3.0831277533083026 0 0 0 0 0 1.5275236235667615 0 0 0 0 0 0 0 0 0 0 0 0 0 0 0 0 0 0 0 0 0 0 0 0 0 0 0 0 0 0 0 0 0 0 0 0 0 0 0 0 0 0 0 0 0 0 0 0 0 0 0 0 0 0 0 0 1.5275236235667615 0 0 0 0 0 0 0 0 0 0 0 0 0 0 1.5275236235667615 0 0 0 0 0 0 0 0 0 0 0 0 0 0 0 0 0 0 0 0 0 0 0 0 0 0 0 0 0 0 0 0 0 0 0 0 0 0 0 0 0 0 0 0 0 0 0 0 0 0 0 0 0 0 0
-1.139535879627271 0.7249331610354108 -0.6203565280514397 0 -45.00094081339915 0 16.173148762296147 -28.85937649339044 -11.167800144287684 0.5934122983034706 33.28666271050144 9.346272061900724 -6.729636559143101 12.915707932012978 -0.5306940850443236 0 0 0 -11.0485609656202 -30.57730874132709 -21.567237387445683 -5.67938585007979 47.54939456044169 -12.366965017388353 27.197023636716395 22.96892084947047 -13.275837395309798 0 0 0 -6.3813316631375345 14.5358844700287 -8.838542372136555 -10.07872804551049 14.63237058748065 -3.9533075128889945 0 0 0 -18.142873215453154 2.5427642059751188 -2.140978299827135 18.538028644839756 -36.28268773398239 -30.51188704447508 -41.68034175747877 12.87336532220449 -28.091650178333637 -8.18927104924842 4.908229617346672 23.99174599946842 0 0 0 0 0 0 0 0 0 0 0 0 0 0 0 0 0 0 0 0 0 0 0 0 0 0 0 0 0 0 0 0 0 0 0 0 0 0 0 0 0 0 0 0 0 -8.13685631563611 -6.256982043200957 2.462365478534547 14.627211279547293 -2.4184699597469095 4.131347346543327 0 0 0 0 0 0 0 0 0 -21.301563087735556 -8.848234807118745 15.691230962524255 4.595257238936936 27.645570274596835 18.40664306238861 12.831702693775672 20.173740289843224 -36.2034908734416 5.229815987692826 5.342719380503334 -1.035178522889187 0 0 0 0 0 0 0 0 0 0 0 0 0 0 0 0 0 0 0 0 0 0 0 0 0 0 0 0 0 0 0 0 0 0 0 0 0 0 0 0 0 0 0 0 0
-2.279071759254542 -10.23284665947574 -1.2407130561028794 0 -90 0 45.34009285436361 -53.80216577951455 -32.28226258354494 9.101114149775508 69.91565618908588 19.621580021144936 -14.14250885703304 25.66974007979723 -2.766274317847641 0 0 0 -0.2506696258068797 -62.13531611593171 -60.11996929467949 -137.89477571196306 77.58333158635399 -144.911542048898 56.58657141932914 49.30881734026084 -14.128355632587276 0 0 0 -10.147800948228866 32.64431916586425 -22.024742728694978 -21.737302605012363 25.243776079036515 -10.347753508033321 0 0 0 -36.32017248004103 2.840491825512805 -4.493035019388958 71.63590141406117 -49.31965599997377 -92.63250481260035 -84.35826437092389 3.22430581766481 -57.54929077651171 -13.769982185912244 12.69450561982565 47.478533626527295 0 0 0 0 0 0 0 0 0 0 0 0 0 0 0 0 0 0 0 0 0 0 0 0 0 0 0 0 0 0 0 0 0 0 0 0 0 0 0 0 0 0 0 0 0 -16.79827328277679 -13.59965119612179 6.086865489547483 29.097992203831122 -5.797039071252271 7.530589501759444 0 0 0 0 0 0 0 0 0 -45.07955842376157 -12.392862649167455 34.44732556823535 24.571939976732118 51.24732971503744 48.724804079395454 10.012719237078251 43.82139770210909 -76.22523796547401 10.430865771988536 10.757247609312053 -1.5848940980472979 0 0 0 0 0 0 0 0 0 0 0 0 0 0 0 0 0 0 0 0 0 0 0 0 0 0 0 0 0 0 0 0 0 0 0 0 0 0 0 0 0 0 0 0 0
-2.279071759254542 -10.23284665947574 -1.2407130561028794 0 -90 0 45.340090822056254 -53.802171562173605 -32.282260139136255 9.101114149775508 69.91565618908588 19.621580021144936 -14.14250885703304 25.66974007979723 -2.766274317847641 0 0 0 -0.2974692555448556 -62.187817229557645 -60.15316796693618 -137.89477571196306 77.58333158635399 -144.911542048898 56.58883476902013 49.36446609470254 -14.203071505309222 0 0 0 -10.147799950150127 32.644315110103044 -22.024741207756403 -21.77143279768839 25.424289071849312 -10.427455911709556 0 0 0 -36.31859145058969 2.7067034837898203 -4.324882380665551 71.63590141406117 -49.31965599997377 -92.63250481260035 -84.35825330811724 3.224306245228469 -57.54928605474761 -13.769982185912244 12.694504744659103 47.478533626527295 0 0 0 0 0 0 0 0 0 0 0 0 0 0 0 0 0 0 0 0 0 0 0 0 0 0 0 0 0 0 0 0 0 0 0 0 0 0 0 0 0 0 0 0 0 -16.77911468759825 -13.334015000404552 6.004466338754182 29.14285702506223 -6.541626452726128 7.113412364679809 0 0 0 0 0 0 0 0 0 -45.07955347887242 -12.392862649167455 34.44732268480243 24.571937495883397 51.24732971503744 48.724800229730775 10.012719237078251 43.82139770210909 -76.22523796547401 10.3529263553604 10.662966515489742 -1.6988267103808008 0 0 0 0 0 0 0 0 0 0 0 0 0 0 0 0 0 0 0 0 0 0 0 0 0 0 0 0 0 0 0 0 0 0 0 0 0 0 0 0 0 0 0 0 0
-2.279071759254542 -10.23284665947574 -1.2407130561028794 0 -90 0 45.3400887654782 -53.802171562173605 -32.282260139136255 9.101114149775508 69.91565618908588 19.621580021144936 -14.14250885703304 25.66974007979723 -2.766274317847641 0 0 0 -0.34428499288634956 -62.24033637681871 -60.18633242580698 -137.89477571196306 77.58333158635399 -144.911542048898 56.590989953057196 49.42012015276563 -14.27786801150786 0 0 0 -10.147799235573725 32.64431105434201 -22.024741207756403 -21.805892554422456 25.60476038551167 -10.507397946901687 0 0 0 -36.31740367823007 2.5729111076354436 -4.156751084966732 71.63590141406117 -49.31965599997377 -92.63250481260035 -84.35824224531103 3.224306459010298 -57.54928316833959 -13.769982185912244 12.694503869492557 47.478533626527295 0 0 0 0 0 0 0 0 0 0 0 0 0 0 0 0 0 0 0 0 0 0 0 0 0 0 0 0 0 0 0 0 0 0 0 0 0 0 0 0 0 0 0 0 0 -16.760370258386438 -13.068351348602029 5.922248351436943 29.193256226987977 -7.285868819040291 6.6949902320113495 0 0 0 0 0 0 0 0 0 -45.07955347887242 -12.392862649167455 34.44732070697467 24.57193274633134 51.24732971503744 48.724794329923895 10.012719237078251 43.82139770210909 -76.22523796547401 10.275201067535267 10.568533973539704 -1.8125936181430846 0 0 0 0 0 0 0 0 0 0 0 0 0 0 0 0 0 0 0 0 0 0 0 0 0 0 0 0 0 0 0 0 0 0 0 0 0 0 0 0 0 0 0 0 0
-2.279071759254542 -10.23284665947574 -1.2407130561028794 0 -90 0 45.340090822056254 -53.802171562173605 -32.282260139136255 9.101111962997066 69.91564624423084 19.621579023441345 -14.14250885703304 25.669738185271488 -2.7662738447681305 0 0 0 -0.39111951593183447 -62.292888386410716 -60.21948924418318 -137.89477571196306 77.58333158635399 -144.911542048898 56.593031522126225 49.475779585107325 -14.35275473867698 0 0 0 -10.147799950150127 32.644315110103044 -22.024741207756403 -21.840692479781573 25.78522007170034 -10.587596435965528 0 0 0 -36.31660350823107 2.4390857688478085 -3.9886016503308306 71.63590141406117 -49.31965599997377 -92.63250341771982 -84.35825330811724 3.224306245228469 -57.54928605474761 -13.76998133589874 12.694503869492557 47.47853126054463 0 0 0 0 0 0 0 0 0 0 0 0 0 0 0 0 0 0 0 0 0 0 0 0 0 0 0 0 0 0 0 0 0 0 0 0 0 0 0 0 0 0 0 0 0 -16.742029047948026 -12.802562696101267 5.840175648017524 29.2494454521258 -8.032411157880217 6.273656656613159 0 0 0 0 0 0 0 0 0 -45.07955347887242 -12.392860900883438 34.44732070697467 24.571937495883397 51.24732971503744 48.724800229730775 10.012727051878576 43.82139770210909 -76.22522879337767 10.197679041020743 10.473936843740168 -1.9262088643225792 0 0 0 0 0 0 0 0 0 0 0 0 0 0 0 0 0 0 0 0 0 0 0 0 0 0 0 0 0 0 0 0 0 0 0 0 0 0 0 0 0 0 0 0 0
-2.279071759254542 -10.23284665947574 -1.2407130561028794 0 -90 0 45.34009285436361 -53.80216577951455 -32.28226258354494 9.101109603423337 69.91564624423084 19.62157685481747 -14.142507938480765 25.669738185271488 -2.76627337168862 0 0 0 -0.43797046206942325 -62.34545875928431 -60.2526103228545 -137.89477571196306 77.58333158635399 -144.9115404243619 56.594961991994325 49.53143393900221 -14.42772206865237 0 0 0 -10.147800948228866 32.64431916586425 -22.024742728694978 -21.875828800021736 25.965637584188908 -10.66804081854009 0 0 0 -36.3161955868063 2.305259003622462 -3.820470550130533 71.63589976343593 -49.31965599997377 -92.63250194575691 -84.35826437092389 3.22430581766481 -57.54929077651171 -13.76998133589874 12.694504744659103 47.47853126054463 0 0 0 0 0 0 0 0 0 0 0 0 0 0 0 0 0 0 0 0 0 0 0 0 0 0 0 0 0 0 0 0 0 0 0 0 0 0 0 0 0 0 0 0 0 -16.724098002324613 -12.536748686516576 5.758275981787365 29.311295295297686 -8.77852325870309 5.85077090522253 0 0 0 0 0 0 0 0 0 -45.07955347887242 -12.392859152599431 34.44732556823535 24.571939976732118 51.24732971503744 48.724804079395454 10.012732878406691 43.82139770210909 -76.22522074831103 10.12037262373505 10.37918803932547 -2.039659268814568 0 0 0 0 0 0 0 0 0 0 0 0 0 0 0 0 0 0 0 0 0 0 0 0 0 0 0 0 0 0 0 0 0 0 0 0 0 0 0 0 0 0 0 0 0
-2.279071759254542 -10.23284665947574 -1.2407130561028794 0 -90 0 45.34009285436361 -53.80216577951455 -32.28226258354494 9.101111176472354 69.91564624423084 19.621580194362167 -14.14250885703304 25.669738185271488 -2.7662736082283756 0 0 0 -0.4692128572505455 -62.38050284991971 -60.27466257540293 -137.89477571196306 77.58333158635399 -144.9115404243619 56.59619071824967 49.56854398421906 -14.477745570730917 0 0 0 -10.147800948228866 32.644315110103044 -22.024742728694978 -21.899439564425446 26.0859074391022 -10.721814621611319 0 0 0 -36.316144897493714 2.21602270552227 -3.7083700524127425 71.63590141406117 -49.31965599997377 -92.6325029270655 -84.35826564740161 3.224306672792128 -57.54929366292001 -13.76998133589874 12.694504744659103 47.47853126054463 0 0 0 0 0 0 0 0 0 0 0 0 0 0 0 0 0 0 0 0 0 0 0 0 0 0 0 0 0 0 0 0 0 0 0 0 0 0 0 0 0 0 0 0 0 -16.71236635794427 -12.359466442088477 5.70375239642172 29.35583840677879 -9.277246678841662 5.567011027105696 0 0 0 0 0 0 0 0 0 -45.07955842376157 -12.392860026741433 34.44732556823535 24.571944726284883 51.24732971503744 48.72480612953797 10.012728217184216 43.82139770210909 -76.22522649478714 10.068947685512612 10.315932832617838 -2.115209684195526 0 0 0 0 0 0 0 0 0 0 0 0 0 0 0 0 0 0 0 0 0 0 0 0 0 0 0 0 0 0 0 0 0 0 0 0 0 0 0 0 0 0 0 0 0
